<svg width="16" height="16" viewBox="0 0 16 16" fill="none" xmlns="http://www.w3.org/2000/svg">
<path fill-rule="evenodd" clip-rule="evenodd" d="M8.00024 4.77612C8.27639 4.77612 8.50024 4.99998 8.50024 5.27612V10.7241C8.50024 11.0003 8.27639 11.2241 8.00024 11.2241C7.7241 11.2241 7.50024 11.0003 7.50024 10.7241V5.27612C7.50024 4.99998 7.7241 4.77612 8.00024 4.77612Z" fill="#70AF00"/>
<path fill-rule="evenodd" clip-rule="evenodd" d="M5.91674 7.93616C5.91672 7.93614 5.91675 7.93618 5.91674 7.93616L5.91747 7.93724L5.92058 7.94186L5.93375 7.96126C5.94554 7.97856 5.96321 8.00435 5.98617 8.03744C6.0321 8.10364 6.09902 8.19882 6.18198 8.31329C6.34839 8.5429 6.5771 8.84698 6.82894 9.14925C7.08308 9.45428 7.3498 9.74414 7.5922 9.95341C7.7135 10.0581 7.81721 10.1326 7.90041 10.1786C7.95614 10.2094 7.98829 10.2194 8.00014 10.2226C8.012 10.2194 8.04422 10.2094 8.10007 10.1785C8.18338 10.1325 8.2872 10.058 8.40865 9.95326C8.65132 9.74395 8.91837 9.45406 9.17285 9.14901C9.42502 8.84672 9.65407 8.54263 9.82073 8.31301C9.90382 8.19854 9.97084 8.10335 10.0168 8.03714C10.0398 8.00406 10.0575 7.97826 10.0693 7.96096L10.0825 7.94156L10.0857 7.93694L10.0863 7.93595C10.0863 7.93597 10.0863 7.93593 10.0863 7.93595C10.2403 7.70676 10.551 7.64561 10.7802 7.79956C11.0095 7.95352 11.0705 8.26417 10.9165 8.49341L10.5015 8.21463C10.9165 8.49341 10.9166 8.49334 10.9165 8.49341L10.9148 8.49596L10.9107 8.5021L10.8953 8.52466C10.882 8.54413 10.8627 8.57224 10.8381 8.60777C10.7887 8.67879 10.7177 8.77964 10.63 8.90042C10.4552 9.1413 10.2119 9.46454 9.94074 9.78959C9.67188 10.1119 9.36461 10.4493 9.06178 10.7105C8.91047 10.841 8.74875 10.9626 8.58371 11.0538C8.42484 11.1416 8.22248 11.224 8.00013 11.224C7.77774 11.224 7.5754 11.1415 7.41656 11.0537C7.25155 10.9625 7.08992 10.8409 6.93872 10.7104C6.63613 10.4491 6.32917 10.1116 6.06065 9.78935C5.78982 9.46428 5.54687 9.14103 5.37228 8.90014C5.28474 8.77936 5.21383 8.6785 5.16455 8.60747C5.1399 8.57194 5.12063 8.54383 5.10736 8.52436L5.09204 8.5018L5.0879 8.49566L5.08627 8.49322C5.08622 8.49316 5.08618 8.4931 5.50146 8.21463L5.08627 8.49322C4.93247 8.26387 4.99364 7.95315 5.22299 7.79936C5.45232 7.64557 5.76293 7.70686 5.91674 7.93616Z" fill="#70AF00"/>
<path fill-rule="evenodd" clip-rule="evenodd" d="M2.82903 2.82903C3.94088 1.71717 5.6601 1.3335 8.00016 1.3335C10.3402 1.3335 12.0594 1.71717 13.1713 2.82903C14.2832 3.94088 14.6668 5.6601 14.6668 8.00016C14.6668 10.3402 14.2832 12.0594 13.1713 13.1713C12.0594 14.2832 10.3402 14.6668 8.00016 14.6668C5.6601 14.6668 3.94088 14.2832 2.82903 13.1713C1.71717 12.0594 1.3335 10.3402 1.3335 8.00016C1.3335 5.6601 1.71717 3.94088 2.82903 2.82903ZM3.53613 3.53613C2.72082 4.35145 2.3335 5.71556 2.3335 8.00016C2.3335 10.2848 2.72082 11.6489 3.53613 12.4642C4.35145 13.2795 5.71556 13.6668 8.00016 13.6668C10.2848 13.6668 11.6489 13.2795 12.4642 12.4642C13.2795 11.6489 13.6668 10.2848 13.6668 8.00016C13.6668 5.71556 13.2795 4.35145 12.4642 3.53613C11.6489 2.72082 10.2848 2.3335 8.00016 2.3335C5.71556 2.3335 4.35145 2.72082 3.53613 3.53613Z" fill="#70AF00"/>
</svg>
