<svg width="1440" height="73" viewBox="0 0 1440 73" fill="none" xmlns="http://www.w3.org/2000/svg">
<path d="M1.77466 0.0946068C8.66052 0.245979 12.9199 4.03027 17.6761 8.79849C23.2842 14.3992 31.3059 15.6102 37.5529 10.3122C42.3091 6.30085 45.7166 1.30558 52.1765 0.39735C59.2043 -0.586567 64.4574 2.2895 69.3556 7.28477C74.7507 12.8098 81.4948 16.2157 88.8065 11.8259C94.2017 8.64711 97.0411 2.89499 103.288 0.851466C109.748 -1.26774 116.279 1.15421 121.035 5.69536C123.236 7.81457 125.153 10.0851 127.708 11.8259C131.258 14.1722 135.801 14.2479 139.634 12.9612C143.751 11.5989 146.591 7.51183 149.715 4.71145C152.98 1.7597 156.813 0.321665 161.144 0.170293C161.215 0.170293 161.286 0.170293 161.357 0.170293C161.428 0.170293 161.428 0.170293 161.499 0.170293C168.314 0.39735 172.502 4.10596 177.187 8.79849C182.795 14.3992 190.817 15.6102 197.064 10.3122C201.82 6.30085 205.227 1.30558 211.687 0.39735C218.715 -0.586567 223.969 2.2895 228.867 7.28477C234.262 12.8098 241.006 16.2157 248.318 11.8259C253.713 8.64711 256.552 2.89499 262.799 0.851466C269.259 -1.26774 275.79 1.15421 280.546 5.69536C282.747 7.81457 284.664 10.0851 287.219 11.8259C290.769 14.1722 295.312 14.2479 299.145 12.9612C303.262 11.5989 306.102 7.51183 309.225 4.71145C312.491 1.7597 316.324 0.321665 320.655 0.170293C320.726 0.170293 320.797 0.170293 320.868 0.170293C320.939 0.170293 320.938 0.170293 321.01 0.170293C327.824 0.39735 332.013 4.10596 336.698 8.79849C342.306 14.3992 350.328 15.6102 356.575 10.3122C361.331 6.30085 364.738 1.30558 371.198 0.39735C378.226 -0.586567 383.479 2.2895 388.378 7.28477C393.773 12.8098 400.517 16.2157 407.828 11.8259C413.224 8.64711 416.063 2.89499 422.31 0.851466C428.77 -1.26774 435.301 1.15421 440.057 5.69536C442.258 7.81457 444.174 10.0851 446.73 11.8259C450.28 14.1722 454.823 14.2479 458.656 12.9612C462.773 11.5989 465.613 7.51183 468.737 4.71145C472.002 1.7597 475.835 0.321665 480.166 0.170293C480.237 0.170293 480.308 0.170293 480.379 0.170293C480.45 0.170293 480.45 0.170293 480.521 0.170293C487.335 0.39735 491.524 4.10596 496.209 8.79849C501.817 14.3992 509.839 15.6102 516.086 10.3122C520.842 6.30085 524.249 1.30558 530.709 0.39735C537.737 -0.586567 542.99 2.2895 547.889 7.28477C553.284 12.8098 560.028 16.2157 567.339 11.8259C572.734 8.64711 575.574 2.89499 581.821 0.851466C588.281 -1.26774 594.812 1.15421 599.568 5.69536C601.769 7.81457 603.685 10.0851 606.241 11.8259C609.79 14.1722 614.334 14.2479 618.167 12.9612C622.284 11.5989 625.124 7.51183 628.247 4.71145C631.513 1.7597 635.346 0.321665 639.677 0.170293C639.748 0.170293 639.819 0.170293 639.89 0.170293C639.961 0.170293 639.961 0.170293 640.031 0.170293C646.846 0.39735 651.035 4.10596 655.72 8.79849C661.328 14.3992 669.35 15.6102 675.597 10.3122C680.353 6.30085 683.76 1.30558 690.22 0.39735C697.248 -0.586567 702.501 2.2895 707.4 7.28477C712.795 12.8098 719.539 16.2157 726.85 11.8259C732.246 8.64711 735.085 2.89499 741.332 0.851466C747.792 -1.26774 754.323 1.15421 759.079 5.69536C761.28 7.81457 763.196 10.0851 765.752 11.8259C769.301 14.1722 773.845 14.2479 777.678 12.9612C781.795 11.5989 784.635 7.51183 787.758 4.71145C791.024 1.7597 794.857 0.321665 799.188 0.170293C799.259 0.170293 799.33 0.170293 799.401 0.170293C799.471 0.170293 799.471 0.170293 799.542 0.170293C806.357 0.39735 810.546 4.10596 815.231 8.79849C820.839 14.3992 828.861 15.6102 835.108 10.3122C840.219 6.30085 843.697 1.22989 850.157 0.321664C857.185 -0.662253 862.438 2.21381 867.336 7.20908C872.732 12.7342 879.475 16.14 886.787 11.7502C892.111 8.57143 895.022 2.8193 901.198 0.77578C907.658 -1.34342 914.189 1.07852 918.945 5.61968C921.146 7.73888 923.062 10.0095 925.618 11.7502C929.167 14.0965 933.711 14.1722 937.544 12.8855C941.661 11.5232 944.501 7.43614 947.624 4.63576C950.89 1.68401 954.723 0.245979 959.053 0.0946068C959.124 0.0946068 959.195 0.0946068 959.266 0.0946068C959.337 0.0946068 959.337 0.0946068 959.408 0.0946068C966.223 0.321665 970.412 4.03027 975.097 8.7228C980.705 14.3236 988.727 15.5345 994.974 10.2365C999.872 6.30085 1003.28 1.22989 1009.74 0.321664C1016.77 -0.662253 1022.02 2.21381 1026.92 7.20908C1032.31 12.7342 1039.06 16.14 1046.37 11.7502C1051.69 8.57143 1054.6 2.8193 1060.85 0.77578C1067.31 -1.34342 1073.84 1.07852 1078.6 5.61968C1080.8 7.73888 1082.72 10.0095 1085.27 11.7502C1088.82 14.0965 1093.36 14.1722 1097.2 12.8855C1101.31 11.5232 1104.15 7.43614 1107.28 4.63576C1110.54 1.68401 1114.38 0.245979 1118.71 0.0946068C1118.78 0.0946068 1118.85 0.0946068 1118.92 0.0946068C1118.99 0.0946068 1118.99 0.0946068 1119.06 0.0946068C1125.88 0.321665 1130.06 4.03027 1134.75 8.7228C1140.36 14.3236 1148.38 15.5345 1154.63 10.2365C1159.38 6.22517 1162.79 1.22989 1169.25 0.321664C1176.28 -0.662253 1181.53 2.21381 1186.43 7.20908C1191.82 12.7342 1198.57 16.14 1205.88 11.7502C1211.35 8.57143 1214.26 2.8193 1220.43 0.77578C1226.89 -1.34342 1233.42 1.07852 1238.18 5.61968C1240.38 7.73888 1242.3 10.0095 1244.85 11.7502C1248.4 14.0965 1252.95 14.1722 1256.78 12.8855C1260.9 11.5232 1263.74 7.43614 1266.86 4.63576C1270.12 1.68401 1273.96 0.245979 1278.29 0.0946068C1278.36 0.0946068 1278.43 0.0946068 1278.5 0.0946068C1278.57 0.0946068 1278.57 0.0946068 1278.64 0.0946068C1285.46 0.321665 1289.65 4.03027 1294.33 8.7228C1299.94 14.3236 1307.96 15.5345 1314.21 10.2365C1318.96 6.22517 1322.37 1.22989 1328.83 0.321664C1335.86 -0.662253 1341.11 2.21381 1346.01 7.20908C1351.41 12.7342 1358.15 16.14 1365.46 11.7502C1370.93 8.57143 1373.84 2.8193 1380.01 0.77578C1386.47 -1.34342 1393.01 1.07852 1397.76 5.61968C1399.96 7.73888 1401.88 10.0095 1404.43 11.7502C1407.98 14.0965 1412.53 14.1722 1416.36 12.8855C1420.48 11.5232 1423.32 7.43614 1426.44 4.63576C1429.78 1.60833 1433.75 0.170293 1438.15 0.0946068C1439.43 0.0946068 1440 1.07852 1440 1.98675V72.5H0V1.98675C0 1.07852 0.567871 0.0946068 1.77466 0.0946068Z" fill="#FBBB2F"/>
</svg>
