<svg width="18" height="18" viewBox="0 0 18 18" fill="none" xmlns="http://www.w3.org/2000/svg">
<path d="M4.27064 4.82288C11.6569 3.81995 13.4772 3.94303 14.625 5.25012C15.7729 6.55721 15.5041 10.8662 14.1624 12.0654C12.8214 13.2647 6.99764 13.3787 5.15264 12.0654C3.20339 10.6772 4.33439 6.4067 4.27064 3.81995C4.30889 2.37245 2.73764 2.1377 2.73764 2.1377" stroke="white" stroke-linecap="round" stroke-linejoin="round"/>
<path d="M10.6171 8.03992H12.6968" stroke="white" stroke-linecap="round" stroke-linejoin="round"/>
<path fill-rule="evenodd" clip-rule="evenodd" d="M5.448 15.0957C5.673 15.0957 5.856 15.2787 5.856 15.5037C5.856 15.7295 5.673 15.9125 5.448 15.9125C5.22225 15.9125 5.03925 15.7295 5.03925 15.5037C5.03925 15.2787 5.22225 15.0957 5.448 15.0957Z" fill="white" stroke="white" stroke-linecap="round" stroke-linejoin="round"/>
<path fill-rule="evenodd" clip-rule="evenodd" d="M13.1966 15.0957C13.4224 15.0957 13.6054 15.2787 13.6054 15.5037C13.6054 15.7295 13.4224 15.9125 13.1966 15.9125C12.9716 15.9125 12.7886 15.7295 12.7886 15.5037C12.7886 15.2787 12.9716 15.0957 13.1966 15.0957Z" fill="white" stroke="white" stroke-linecap="round" stroke-linejoin="round"/>
</svg>
