<svg width="18" height="18" viewBox="0 0 18 18" fill="none" xmlns="http://www.w3.org/2000/svg">
<path d="M4.27079 4.82288C11.6571 3.81995 13.4773 3.94303 14.6252 5.25012C15.773 6.55721 15.5043 10.8662 14.1625 12.0654C12.8215 13.2647 6.99779 13.3787 5.15279 12.0654C3.20354 10.6772 4.33454 6.4067 4.27079 3.81995C4.30904 2.37245 2.73779 2.1377 2.73779 2.1377" stroke="#DB1E46" stroke-linecap="round" stroke-linejoin="round"/>
<path d="M10.6172 8.03992H12.6969" stroke="#DB1E46" stroke-linecap="round" stroke-linejoin="round"/>
<path fill-rule="evenodd" clip-rule="evenodd" d="M5.4483 15.0957C5.6733 15.0957 5.8563 15.2787 5.8563 15.5037C5.8563 15.7295 5.6733 15.9125 5.4483 15.9125C5.22255 15.9125 5.03955 15.7295 5.03955 15.5037C5.03955 15.2787 5.22255 15.0957 5.4483 15.0957Z" fill="#DB1E46" stroke="#DB1E46" stroke-linecap="round" stroke-linejoin="round"/>
<path fill-rule="evenodd" clip-rule="evenodd" d="M13.1966 15.0957C13.4223 15.0957 13.6053 15.2787 13.6053 15.5037C13.6053 15.7295 13.4223 15.9125 13.1966 15.9125C12.9716 15.9125 12.7886 15.7295 12.7886 15.5037C12.7886 15.2787 12.9716 15.0957 13.1966 15.0957Z" fill="#DB1E46" stroke="#DB1E46" stroke-linecap="round" stroke-linejoin="round"/>
</svg>
